# xmcd
#
# Track frame offsets: 
#        150
#        18973
#        30248
#        42578
#        61835
#        75788
#        89572
#        98628
#        108011
#        130417
#        141436
#        159051
#        166501
#        179211
#        192039
#        198739
#
# Disc length: 2811 seconds
#
# Revision: 0
# Processed by: cddbd v1.5.2PL0 Copyright (c) Steve Scherf et al.
# Submitted via: ExactAudioCopy v0.99pb5
#
DISCID=c20af910
DTITLE=Песни о... - Андрей Веренок
DYEAR=2003
DGENRE=Folklore
TTITLE0=Вдаль уходят фонарей ожерелья...
TTITLE1=О телефонных номерах
TTITLE2=Улица Любви
TTITLE3=Я здоров был...
TTITLE4=Песня о богатстве
TTITLE5=Никому не нужна моя учённость...
TTITLE6=Проливной дождь прошёл...
TTITLE7=Юлька Воронцова
TTITLE8=В ненастный день...
TTITLE9=Туч громады на горизонте...
TTITLE10=''Москва-Новороссийск''
TTITLE11=Я напьюсь воды из-под крана...
TTITLE12=Вновь меня озаряет весенний рассвет...
TTITLE13=На предельных скоростях...
TTITLE14=Вирус любви
TTITLE15=В мазуте рельсы чёрные...
EXTD=
EXTT0=
EXTT1=
EXTT2=
EXTT3=
EXTT4=
EXTT5=
EXTT6=
EXTT7=
EXTT8=
EXTT9=
EXTT10=
EXTT11=
EXTT12=
EXTT13=
EXTT14=
EXTT15=
PLAYORDER=
